<?xml version="1.0" encoding="ISO-8859-1" standalone="no"?>
<!DOCTYPE svg PUBLIC "-//W3C//DTD SVG 1.1//EN" "http://www.w3.org/Graphics/SVG/1.1/DTD/svg11.dtd">
<svg version="1.1" baseProfile="full" id="body" width="8in" height="8in" viewBox="0 0 1 1" preserveAspectRatio="none" xmlns="http://www.w3.org/2000/svg" xmlns:xlink="http://www.w3.org/1999/xlink" xmlns:ev="http://www.w3.org/2001/xml-events">
<title>SVG drawing</title>
<desc>This was produced by version 4.4 of GNU libplot, a free library for exporting 2-D vector graphics.</desc>
<rect id="background" x="0" y="0" width="1" height="1" stroke="none" fill="white"/>
<g id="content" transform="translate(0,1) scale(0.0016667,-0.0033333) " xml:space="preserve" stroke="black" stroke-linecap="butt" stroke-linejoin="miter" stroke-miterlimit="10.433" stroke-dasharray="none" stroke-dashoffset="0" stroke-opacity="1" fill="none" fill-rule="evenodd" fill-opacity="1" font-style="normal" font-variant="normal" font-weight="normal" font-stretch="normal" font-size-adjust="none" letter-spacing="normal" word-spacing="normal" text-anchor="start">
<line x1="208.39" y1="279.74" x2="208.39" y2="271.71" stroke-width="0.54307" stroke-linecap="round" />
<polyline points="208.39,279.74 211.84,279.74 212.98,279.36 213.37,278.98 213.75,278.21 213.75,277.06 213.37,276.3 212.98,275.92 211.84,275.54 208.39,275.54 " stroke-width="0.54307" stroke-linecap="round" stroke-linejoin="round" />
<polygon points="217.96,277.06 217.19,276.68 216.43,275.92 216.04,274.77 216.04,274.01 216.43,272.86 217.19,272.09 217.96,271.71 219.1,271.71 219.87,272.09 220.63,272.86 221.02,274.01 221.02,274.77 220.63,275.92 219.87,276.68 219.1,277.06 " stroke-width="0.54307" stroke-linejoin="round" />
<line x1="223.69" y1="277.06" x2="223.69" y2="269.03" stroke-width="0.54307" stroke-linecap="round" />
<polyline points="223.69,275.92 224.46,276.68 225.22,277.06 226.37,277.06 227.13,276.68 227.9,275.92 228.28,274.77 228.28,274.01 227.9,272.86 227.13,272.09 226.37,271.71 225.22,271.71 224.46,272.09 223.69,272.86 " stroke-width="0.54307" stroke-linecap="round" stroke-linejoin="round" />
<polyline points="230.96,277.06 230.96,273.24 231.34,272.09 232.11,271.71 233.25,271.71 234.02,272.09 235.17,273.24 " stroke-width="0.54307" stroke-linecap="round" stroke-linejoin="round" />
<line x1="235.17" y1="277.06" x2="235.17" y2="271.71" stroke-width="0.54307" stroke-linecap="round" />
<line x1="238.23" y1="279.74" x2="238.23" y2="271.71" stroke-width="0.54307" stroke-linecap="round" />
<line x1="245.49" y1="277.06" x2="245.49" y2="271.71" stroke-width="0.54307" stroke-linecap="round" />
<polyline points="245.49,275.92 244.73,276.68 243.96,277.06 242.81,277.06 242.05,276.68 241.29,275.92 240.9,274.77 240.9,274.01 241.29,272.86 242.05,272.09 242.81,271.71 243.96,271.71 244.73,272.09 245.49,272.86 " stroke-width="0.54307" stroke-linecap="round" stroke-linejoin="round" />
<polyline points="248.93,279.74 248.93,273.24 249.32,272.09 250.08,271.71 250.85,271.71 " stroke-width="0.54307" stroke-linecap="round" stroke-linejoin="round" />
<line x1="247.79" y1="277.06" x2="250.46" y2="277.06" stroke-width="0.54307" stroke-linecap="round" />
<polygon points="252.76,279.74 253.14,279.36 253.52,279.74 253.14,280.12 " stroke-width="0.54307" stroke-linejoin="round" />
<line x1="253.14" y1="277.06" x2="253.14" y2="271.71" stroke-width="0.54307" stroke-linecap="round" />
<polygon points="257.73,277.06 256.97,276.68 256.2,275.92 255.82,274.77 255.82,274.01 256.2,272.86 256.97,272.09 257.73,271.71 258.88,271.71 259.64,272.09 260.41,272.86 260.79,274.01 260.79,274.77 260.41,275.92 259.64,276.68 258.88,277.06 " stroke-width="0.54307" stroke-linejoin="round" />
<line x1="263.47" y1="277.06" x2="263.47" y2="271.71" stroke-width="0.54307" stroke-linecap="round" />
<polyline points="263.47,275.54 264.61,276.68 265.38,277.06 266.53,277.06 267.29,276.68 267.67,275.54 267.67,271.71 " stroke-width="0.54307" stroke-linecap="round" stroke-linejoin="round" />
<polyline points="271.12,278.98 270.73,279.36 271.12,279.74 271.5,279.36 271.5,278.59 271.12,277.83 270.73,277.45 " stroke-width="0.54307" stroke-linecap="round" stroke-linejoin="round" />
<polyline points="278.38,275.92 278,276.68 276.85,277.06 275.71,277.06 274.56,276.68 274.18,275.92 274.56,275.15 275.32,274.77 277.24,274.39 278,274.01 278.38,273.24 278.38,272.86 278,272.09 276.85,271.71 275.71,271.71 274.56,272.09 274.18,272.86 " stroke-width="0.54307" stroke-linecap="round" stroke-linejoin="round" />
<line x1="291.39" y1="277.06" x2="291.39" y2="271.71" stroke-width="0.54307" stroke-linecap="round" />
<polyline points="291.39,275.92 290.62,276.68 289.86,277.06 288.71,277.06 287.94,276.68 287.18,275.92 286.8,274.77 286.8,274.01 287.18,272.86 287.94,272.09 288.71,271.71 289.86,271.71 290.62,272.09 291.39,272.86 " stroke-width="0.54307" stroke-linecap="round" stroke-linejoin="round" />
<line x1="293.68" y1="277.06" x2="295.97" y2="271.71" stroke-width="0.54307" stroke-linecap="round" />
<line x1="298.27" y1="277.06" x2="295.97" y2="271.71" stroke-width="0.54307" stroke-linecap="round" />
<polyline points="300.18,274.77 304.77,274.77 304.77,275.54 304.39,276.3 304.01,276.68 303.24,277.06 302.09,277.06 301.33,276.68 300.56,275.92 300.18,274.77 300.18,274.01 300.56,272.86 301.33,272.09 302.09,271.71 303.24,271.71 304.01,272.09 304.77,272.86 " stroke-width="0.54307" stroke-linecap="round" stroke-linejoin="round" />
<line x1="307.45" y1="277.06" x2="307.45" y2="271.71" stroke-width="0.54307" stroke-linecap="round" />
<polyline points="307.45,274.77 307.83,275.92 308.6,276.68 309.36,277.06 310.51,277.06 " stroke-width="0.54307" stroke-linecap="round" stroke-linejoin="round" />
<line x1="316.63" y1="277.06" x2="316.63" y2="271.71" stroke-width="0.54307" stroke-linecap="round" />
<polyline points="316.63,275.92 315.86,276.68 315.1,277.06 313.95,277.06 313.19,276.68 312.42,275.92 312.04,274.77 312.04,274.01 312.42,272.86 313.19,272.09 313.95,271.71 315.1,271.71 315.86,272.09 316.63,272.86 " stroke-width="0.54307" stroke-linecap="round" stroke-linejoin="round" />
<polyline points="323.89,277.06 323.89,270.95 323.51,269.8 323.13,269.42 322.36,269.03 321.22,269.03 320.45,269.42 " stroke-width="0.54307" stroke-linecap="round" stroke-linejoin="round" />
<polyline points="323.89,275.92 323.13,276.68 322.36,277.06 321.22,277.06 320.45,276.68 319.69,275.92 319.3,274.77 319.3,274.01 319.69,272.86 320.45,272.09 321.22,271.71 322.36,271.71 323.13,272.09 323.89,272.86 " stroke-width="0.54307" stroke-linecap="round" stroke-linejoin="round" />
<polyline points="326.57,274.77 331.16,274.77 331.16,275.54 330.78,276.3 330.4,276.68 329.63,277.06 328.48,277.06 327.72,276.68 326.95,275.92 326.57,274.77 326.57,274.01 326.95,272.86 327.72,272.09 328.48,271.71 329.63,271.71 330.4,272.09 331.16,272.86 " stroke-width="0.54307" stroke-linecap="round" stroke-linejoin="round" />
<line x1="344.16" y1="277.06" x2="344.16" y2="271.71" stroke-width="0.54307" stroke-linecap="round" />
<polyline points="344.16,275.92 343.4,276.68 342.63,277.06 341.49,277.06 340.72,276.68 339.96,275.92 339.57,274.77 339.57,274.01 339.96,272.86 340.72,272.09 341.49,271.71 342.63,271.71 343.4,272.09 344.16,272.86 " stroke-width="0.54307" stroke-linecap="round" stroke-linejoin="round" />
<line x1="347.22" y1="277.06" x2="347.22" y2="271.71" stroke-width="0.54307" stroke-linecap="round" />
<polyline points="347.22,275.54 348.37,276.68 349.14,277.06 350.28,277.06 351.05,276.68 351.43,275.54 351.43,271.71 " stroke-width="0.54307" stroke-linecap="round" stroke-linejoin="round" />
<line x1="358.7" y1="279.74" x2="358.7" y2="271.71" stroke-width="0.54307" stroke-linecap="round" />
<polyline points="358.7,275.92 357.93,276.68 357.17,277.06 356.02,277.06 355.25,276.68 354.49,275.92 354.11,274.77 354.11,274.01 354.49,272.86 355.25,272.09 356.02,271.71 357.17,271.71 357.93,272.09 358.7,272.86 " stroke-width="0.54307" stroke-linecap="round" stroke-linejoin="round" />
<line x1="367.88" y1="279.74" x2="367.88" y2="271.71" stroke-width="0.54307" stroke-linecap="round" />
<polyline points="367.88,275.92 368.64,276.68 369.4,277.06 370.55,277.06 371.32,276.68 372.08,275.92 372.46,274.77 372.46,274.01 372.08,272.86 371.32,272.09 370.55,271.71 369.4,271.71 368.64,272.09 367.88,272.86 " stroke-width="0.54307" stroke-linecap="round" stroke-linejoin="round" />
<polyline points="374.76,274.77 379.35,274.77 379.35,275.54 378.97,276.3 378.58,276.68 377.82,277.06 376.67,277.06 375.91,276.68 375.14,275.92 374.76,274.77 374.76,274.01 375.14,272.86 375.91,272.09 376.67,271.71 377.82,271.71 378.58,272.09 379.35,272.86 " stroke-width="0.54307" stroke-linecap="round" stroke-linejoin="round" />
<polyline points="385.85,275.92 385.47,276.68 384.32,277.06 383.17,277.06 382.03,276.68 381.64,275.92 382.03,275.15 382.79,274.77 384.7,274.39 385.47,274.01 385.85,273.24 385.85,272.86 385.47,272.09 384.32,271.71 383.17,271.71 382.03,272.09 381.64,272.86 " stroke-width="0.54307" stroke-linecap="round" stroke-linejoin="round" />
<polyline points="388.91,279.74 388.91,273.24 389.29,272.09 390.06,271.71 390.82,271.71 " stroke-width="0.54307" stroke-linecap="round" stroke-linejoin="round" />
<line x1="387.76" y1="277.06" x2="390.44" y2="277.06" stroke-width="0.54307" stroke-linecap="round" />
<polyline points="401.53,279.74 400.77,279.74 400,279.36 399.62,278.21 399.62,271.71 " stroke-width="0.54307" stroke-linecap="round" stroke-linejoin="round" />
<line x1="398.47" y1="277.06" x2="401.15" y2="277.06" stroke-width="0.54307" stroke-linecap="round" />
<polygon points="403.44,279.74 403.83,279.36 404.21,279.74 403.83,280.12 " stroke-width="0.54307" stroke-linejoin="round" />
<line x1="403.83" y1="277.06" x2="403.83" y2="271.71" stroke-width="0.54307" stroke-linecap="round" />
<polyline points="407.27,279.74 407.27,273.24 407.65,272.09 408.41,271.71 409.18,271.71 " stroke-width="0.54307" stroke-linecap="round" stroke-linejoin="round" />
<line x1="406.12" y1="277.06" x2="408.8" y2="277.06" stroke-width="0.54307" stroke-linecap="round" />
<line x1="411.47" y1="277.06" x2="411.47" y2="271.71" stroke-width="0.54307" stroke-linecap="round" />
<polyline points="411.47,275.54 412.62,276.68 413.39,277.06 414.53,277.06 415.3,276.68 415.68,275.54 415.68,271.71 " stroke-width="0.54307" stroke-linecap="round" stroke-linejoin="round" />
<polyline points="418.36,274.77 422.95,274.77 422.95,275.54 422.56,276.3 422.18,276.68 421.42,277.06 420.27,277.06 419.51,276.68 418.74,275.92 418.36,274.77 418.36,274.01 418.74,272.86 419.51,272.09 420.27,271.71 421.42,271.71 422.18,272.09 422.95,272.86 " stroke-width="0.54307" stroke-linecap="round" stroke-linejoin="round" />
<polyline points="429.45,275.92 429.07,276.68 427.92,277.06 426.77,277.06 425.62,276.68 425.24,275.92 425.62,275.15 426.39,274.77 428.3,274.39 429.07,274.01 429.45,273.24 429.45,272.86 429.07,272.09 427.92,271.71 426.77,271.71 425.62,272.09 425.24,272.86 " stroke-width="0.54307" stroke-linecap="round" stroke-linejoin="round" />
<polyline points="435.95,275.92 435.57,276.68 434.42,277.06 433.27,277.06 432.13,276.68 431.74,275.92 432.13,275.15 432.89,274.77 434.8,274.39 435.57,274.01 435.95,273.24 435.95,272.86 435.57,272.09 434.42,271.71 433.27,271.71 432.13,272.09 431.74,272.86 " stroke-width="0.54307" stroke-linecap="round" stroke-linejoin="round" />
<polyline points="96.51,136.5 141.6,136.5 186.7,210.88 231.79,254.98 276.89,121.36 321.98,121.36 367.08,225.58 412.17,225.14 457.26,195.3 502.36,195.74 547.45,181.04 " stroke="red" stroke-width="0.42069" />
<polyline points="96.51,61.855 141.6,64.929 186.7,77.578 231.79,77.511 276.89,72.255 321.98,76.019 367.08,83.502 412.17,91.541 457.26,82.032 502.36,73.035 547.45,78.981 " stroke="blue" stroke-width="0.42069" />
<line x1="570" y1="61.529" x2="566.84" y2="61.529" stroke-width="0.70588" />
<line x1="570" y1="73.406" x2="566.84" y2="73.406" stroke-width="0.70588" />
<line x1="570" y1="85.283" x2="566.84" y2="85.283" stroke-width="0.70588" />
<line x1="570" y1="97.161" x2="566.84" y2="97.161" stroke-width="0.70588" />
<line x1="570" y1="109.04" x2="566.84" y2="109.04" stroke-width="0.70588" />
<line x1="570" y1="120.91" x2="566.84" y2="120.91" stroke-width="0.70588" />
<line x1="570" y1="132.79" x2="566.84" y2="132.79" stroke-width="0.70588" />
<line x1="570" y1="144.67" x2="566.84" y2="144.67" stroke-width="0.70588" />
<line x1="570" y1="156.55" x2="566.84" y2="156.55" stroke-width="0.70588" />
<line x1="570" y1="168.42" x2="566.84" y2="168.42" stroke-width="0.70588" />
<line x1="570" y1="180.3" x2="566.84" y2="180.3" stroke-width="0.70588" />
<line x1="570" y1="192.18" x2="566.84" y2="192.18" stroke-width="0.70588" />
<line x1="570" y1="204.06" x2="566.84" y2="204.06" stroke-width="0.70588" />
<line x1="570" y1="215.93" x2="566.84" y2="215.93" stroke-width="0.70588" />
<line x1="570" y1="227.81" x2="566.84" y2="227.81" stroke-width="0.70588" />
<line x1="570" y1="239.69" x2="566.84" y2="239.69" stroke-width="0.70588" />
<line x1="570" y1="251.56" x2="566.84" y2="251.56" stroke-width="0.70588" />
<line x1="570" y1="263.44" x2="566.84" y2="263.44" stroke-width="0.70588" />
<line x1="570" y1="85.283" x2="563.69" y2="85.283" stroke-width="0.70588" />
<line x1="570" y1="132.79" x2="563.69" y2="132.79" stroke-width="0.70588" />
<line x1="570" y1="180.3" x2="563.69" y2="180.3" stroke-width="0.70588" />
<line x1="570" y1="227.81" x2="563.69" y2="227.81" stroke-width="0.70588" />
<line x1="570" y1="52.199" x2="570" y2="264.64" stroke-width="0.70588" />
<line x1="73.963" y1="264.64" x2="73.963" y2="261.48" stroke-width="0.70588" />
<line x1="96.51" y1="264.64" x2="96.51" y2="261.48" stroke-width="0.70588" />
<line x1="119.06" y1="264.64" x2="119.06" y2="261.48" stroke-width="0.70588" />
<line x1="141.6" y1="264.64" x2="141.6" y2="261.48" stroke-width="0.70588" />
<line x1="164.15" y1="264.64" x2="164.15" y2="261.48" stroke-width="0.70588" />
<line x1="186.7" y1="264.64" x2="186.7" y2="261.48" stroke-width="0.70588" />
<line x1="209.25" y1="264.64" x2="209.25" y2="261.48" stroke-width="0.70588" />
<line x1="231.79" y1="264.64" x2="231.79" y2="261.48" stroke-width="0.70588" />
<line x1="254.34" y1="264.64" x2="254.34" y2="261.48" stroke-width="0.70588" />
<line x1="276.89" y1="264.64" x2="276.89" y2="261.48" stroke-width="0.70588" />
<line x1="299.43" y1="264.64" x2="299.43" y2="261.48" stroke-width="0.70588" />
<line x1="321.98" y1="264.64" x2="321.98" y2="261.48" stroke-width="0.70588" />
<line x1="344.53" y1="264.64" x2="344.53" y2="261.48" stroke-width="0.70588" />
<line x1="367.08" y1="264.64" x2="367.08" y2="261.48" stroke-width="0.70588" />
<line x1="389.62" y1="264.64" x2="389.62" y2="261.48" stroke-width="0.70588" />
<line x1="412.17" y1="264.64" x2="412.17" y2="261.48" stroke-width="0.70588" />
<line x1="434.72" y1="264.64" x2="434.72" y2="261.48" stroke-width="0.70588" />
<line x1="457.26" y1="264.64" x2="457.26" y2="261.48" stroke-width="0.70588" />
<line x1="479.81" y1="264.64" x2="479.81" y2="261.48" stroke-width="0.70588" />
<line x1="502.36" y1="264.64" x2="502.36" y2="261.48" stroke-width="0.70588" />
<line x1="524.91" y1="264.64" x2="524.91" y2="261.48" stroke-width="0.70588" />
<line x1="547.45" y1="264.64" x2="547.45" y2="261.48" stroke-width="0.70588" />
<line x1="570" y1="264.64" x2="570" y2="261.48" stroke-width="0.70588" />
<line x1="96.51" y1="264.64" x2="96.51" y2="258.32" stroke-width="0.70588" />
<line x1="186.7" y1="264.64" x2="186.7" y2="258.32" stroke-width="0.70588" />
<line x1="276.89" y1="264.64" x2="276.89" y2="258.32" stroke-width="0.70588" />
<line x1="367.08" y1="264.64" x2="367.08" y2="258.32" stroke-width="0.70588" />
<line x1="457.26" y1="264.64" x2="457.26" y2="258.32" stroke-width="0.70588" />
<line x1="547.45" y1="264.64" x2="547.45" y2="258.32" stroke-width="0.70588" />
<line x1="73.963" y1="264.64" x2="570" y2="264.64" stroke-width="0.70588" />
<line x1="73.963" y1="61.529" x2="77.118" y2="61.529" stroke-width="0.70588" />
<line x1="73.963" y1="73.406" x2="77.118" y2="73.406" stroke-width="0.70588" />
<line x1="73.963" y1="85.283" x2="77.118" y2="85.283" stroke-width="0.70588" />
<line x1="73.963" y1="97.161" x2="77.118" y2="97.161" stroke-width="0.70588" />
<line x1="73.963" y1="109.04" x2="77.118" y2="109.04" stroke-width="0.70588" />
<line x1="73.963" y1="120.91" x2="77.118" y2="120.91" stroke-width="0.70588" />
<line x1="73.963" y1="132.79" x2="77.118" y2="132.79" stroke-width="0.70588" />
<line x1="73.963" y1="144.67" x2="77.118" y2="144.67" stroke-width="0.70588" />
<line x1="73.963" y1="156.55" x2="77.118" y2="156.55" stroke-width="0.70588" />
<line x1="73.963" y1="168.42" x2="77.118" y2="168.42" stroke-width="0.70588" />
<line x1="73.963" y1="180.3" x2="77.118" y2="180.3" stroke-width="0.70588" />
<line x1="73.963" y1="192.18" x2="77.118" y2="192.18" stroke-width="0.70588" />
<line x1="73.963" y1="204.06" x2="77.118" y2="204.06" stroke-width="0.70588" />
<line x1="73.963" y1="215.93" x2="77.118" y2="215.93" stroke-width="0.70588" />
<line x1="73.963" y1="227.81" x2="77.118" y2="227.81" stroke-width="0.70588" />
<line x1="73.963" y1="239.69" x2="77.118" y2="239.69" stroke-width="0.70588" />
<line x1="73.963" y1="251.56" x2="77.118" y2="251.56" stroke-width="0.70588" />
<line x1="73.963" y1="263.44" x2="77.118" y2="263.44" stroke-width="0.70588" />
<line x1="73.963" y1="85.283" x2="80.273" y2="85.283" stroke-width="0.70588" />
<line x1="73.963" y1="132.79" x2="80.273" y2="132.79" stroke-width="0.70588" />
<line x1="73.963" y1="180.3" x2="80.273" y2="180.3" stroke-width="0.70588" />
<line x1="73.963" y1="227.81" x2="80.273" y2="227.81" stroke-width="0.70588" />
<line x1="73.963" y1="52.199" x2="73.963" y2="264.64" stroke-width="0.70588" />
<polygon points="51.972,89.873 50.825,89.49 50.06,88.343 49.677,86.431 49.677,85.283 50.06,83.371 50.825,82.224 51.972,81.841 52.737,81.841 53.884,82.224 54.649,83.371 55.032,85.283 55.032,86.431 54.649,88.343 53.884,89.49 52.737,89.873 " stroke-width="0.54307" stroke-linejoin="round" />
<polygon points="58.091,82.606 57.709,82.224 58.091,81.841 58.474,82.224 " stroke-width="0.54307" stroke-linejoin="round" />
<polyline points="61.916,89.873 66.123,89.873 63.828,86.813 64.975,86.813 65.74,86.431 66.123,86.048 66.505,84.901 66.505,84.136 66.123,82.989 65.358,82.224 64.21,81.841 63.063,81.841 61.916,82.224 61.533,82.606 61.151,83.371 " stroke-width="0.54307" stroke-linecap="round" stroke-linejoin="round" />
<polygon points="51.972,137.38 50.825,137 50.06,135.85 49.677,133.94 49.677,132.79 50.06,130.88 50.825,129.73 51.972,129.35 52.737,129.35 53.884,129.73 54.649,130.88 55.032,132.79 55.032,133.94 54.649,135.85 53.884,137 52.737,137.38 " stroke-width="0.54307" stroke-linejoin="round" />
<polygon points="58.091,130.12 57.709,129.73 58.091,129.35 58.474,129.73 " stroke-width="0.54307" stroke-linejoin="round" />
<polyline points="64.975,137.38 61.151,132.03 66.887,132.03 " stroke-width="0.54307" stroke-linecap="round" stroke-linejoin="round" />
<line x1="64.975" y1="137.38" x2="64.975" y2="129.35" stroke-width="0.54307" stroke-linecap="round" />
<polygon points="51.972,184.89 50.825,184.51 50.06,183.36 49.677,181.45 49.677,180.3 50.06,178.39 50.825,177.24 51.972,176.86 52.737,176.86 53.884,177.24 54.649,178.39 55.032,180.3 55.032,181.45 54.649,183.36 53.884,184.51 52.737,184.89 " stroke-width="0.54307" stroke-linejoin="round" />
<polygon points="58.091,177.62 57.709,177.24 58.091,176.86 58.474,177.24 " stroke-width="0.54307" stroke-linejoin="round" />
<polyline points="65.74,184.89 61.916,184.89 61.533,181.45 61.916,181.83 63.063,182.21 64.21,182.21 65.358,181.83 66.123,181.07 66.505,179.92 66.505,179.15 66.123,178.01 65.358,177.24 64.21,176.86 63.063,176.86 61.916,177.24 61.533,177.62 61.151,178.39 " stroke-width="0.54307" stroke-linecap="round" stroke-linejoin="round" />
<polygon points="51.972,232.4 50.825,232.02 50.06,230.87 49.677,228.96 49.677,227.81 50.06,225.9 50.825,224.75 51.972,224.37 52.737,224.37 53.884,224.75 54.649,225.9 55.032,227.81 55.032,228.96 54.649,230.87 53.884,232.02 52.737,232.4 " stroke-width="0.54307" stroke-linejoin="round" />
<polygon points="58.091,225.13 57.709,224.75 58.091,224.37 58.474,224.75 " stroke-width="0.54307" stroke-linejoin="round" />
<polyline points="66.123,231.25 65.74,232.02 64.593,232.4 63.828,232.4 62.681,232.02 61.916,230.87 61.533,228.96 61.533,227.05 61.916,225.52 62.681,224.75 63.828,224.37 64.21,224.37 65.358,224.75 66.123,225.52 66.505,226.66 66.505,227.05 66.123,228.19 65.358,228.96 64.21,229.34 63.828,229.34 62.681,228.96 61.916,228.19 61.533,227.05 " stroke-width="0.54307" stroke-linecap="round" stroke-linejoin="round" />
<line x1="33.423" y1="139.1" x2="41.455" y2="139.1" stroke-width="0.54307" stroke-linecap="round" />
<line x1="33.423" y1="139.1" x2="33.423" y2="144.08" stroke-width="0.54307" stroke-linecap="round" />
<line x1="37.248" y1="139.1" x2="37.248" y2="142.16" stroke-width="0.54307" stroke-linecap="round" />
<polygon points="33.423,145.61 33.806,145.99 33.423,146.37 33.041,145.99 " stroke-width="0.54307" stroke-linejoin="round" />
<line x1="36.101" y1="145.99" x2="41.455" y2="145.99" stroke-width="0.54307" stroke-linecap="round" />
<polyline points="33.423,149.43 39.925,149.43 41.072,149.81 41.455,150.58 41.455,151.34 " stroke-width="0.54307" stroke-linecap="round" stroke-linejoin="round" />
<line x1="36.101" y1="148.28" x2="36.101" y2="150.96" stroke-width="0.54307" stroke-linecap="round" />
<line x1="36.101" y1="153.64" x2="41.455" y2="153.64" stroke-width="0.54307" stroke-linecap="round" />
<polyline points="37.63,153.64 36.483,154.78 36.101,155.55 36.101,156.7 36.483,157.46 37.63,157.84 41.455,157.84 " stroke-width="0.54307" stroke-linecap="round" stroke-linejoin="round" />
<polyline points="38.395,160.52 38.395,165.11 37.63,165.11 36.865,164.73 36.483,164.35 36.101,163.58 36.101,162.43 36.483,161.67 37.248,160.9 38.395,160.52 39.16,160.52 40.307,160.9 41.072,161.67 41.455,162.43 41.455,163.58 41.072,164.35 40.307,165.11 " stroke-width="0.54307" stroke-linecap="round" stroke-linejoin="round" />
<polyline points="37.248,171.61 36.483,171.23 36.101,170.08 36.101,168.93 36.483,167.79 37.248,167.4 38.013,167.79 38.395,168.55 38.778,170.46 39.16,171.23 39.925,171.61 40.307,171.61 41.072,171.23 41.455,170.08 41.455,168.93 41.072,167.79 40.307,167.4 " stroke-width="0.54307" stroke-linecap="round" stroke-linejoin="round" />
<polyline points="37.248,178.11 36.483,177.73 36.101,176.58 36.101,175.44 36.483,174.29 37.248,173.91 38.013,174.29 38.395,175.05 38.778,176.97 39.16,177.73 39.925,178.11 40.307,178.11 41.072,177.73 41.455,176.58 41.455,175.44 41.072,174.29 40.307,173.91 " stroke-width="0.54307" stroke-linecap="round" stroke-linejoin="round" />
<line x1="73.963" y1="52.199" x2="73.963" y2="55.354" stroke-width="0.70588" />
<line x1="96.51" y1="52.199" x2="96.51" y2="55.354" stroke-width="0.70588" />
<line x1="119.06" y1="52.199" x2="119.06" y2="55.354" stroke-width="0.70588" />
<line x1="141.6" y1="52.199" x2="141.6" y2="55.354" stroke-width="0.70588" />
<line x1="164.15" y1="52.199" x2="164.15" y2="55.354" stroke-width="0.70588" />
<line x1="186.7" y1="52.199" x2="186.7" y2="55.354" stroke-width="0.70588" />
<line x1="209.25" y1="52.199" x2="209.25" y2="55.354" stroke-width="0.70588" />
<line x1="231.79" y1="52.199" x2="231.79" y2="55.354" stroke-width="0.70588" />
<line x1="254.34" y1="52.199" x2="254.34" y2="55.354" stroke-width="0.70588" />
<line x1="276.89" y1="52.199" x2="276.89" y2="55.354" stroke-width="0.70588" />
<line x1="299.43" y1="52.199" x2="299.43" y2="55.354" stroke-width="0.70588" />
<line x1="321.98" y1="52.199" x2="321.98" y2="55.354" stroke-width="0.70588" />
<line x1="344.53" y1="52.199" x2="344.53" y2="55.354" stroke-width="0.70588" />
<line x1="367.08" y1="52.199" x2="367.08" y2="55.354" stroke-width="0.70588" />
<line x1="389.62" y1="52.199" x2="389.62" y2="55.354" stroke-width="0.70588" />
<line x1="412.17" y1="52.199" x2="412.17" y2="55.354" stroke-width="0.70588" />
<line x1="434.72" y1="52.199" x2="434.72" y2="55.354" stroke-width="0.70588" />
<line x1="457.26" y1="52.199" x2="457.26" y2="55.354" stroke-width="0.70588" />
<line x1="479.81" y1="52.199" x2="479.81" y2="55.354" stroke-width="0.70588" />
<line x1="502.36" y1="52.199" x2="502.36" y2="55.354" stroke-width="0.70588" />
<line x1="524.91" y1="52.199" x2="524.91" y2="55.354" stroke-width="0.70588" />
<line x1="547.45" y1="52.199" x2="547.45" y2="55.354" stroke-width="0.70588" />
<line x1="570" y1="52.199" x2="570" y2="55.354" stroke-width="0.70588" />
<line x1="96.51" y1="52.199" x2="96.51" y2="58.51" stroke-width="0.70588" />
<line x1="186.7" y1="52.199" x2="186.7" y2="58.51" stroke-width="0.70588" />
<line x1="276.89" y1="52.199" x2="276.89" y2="58.51" stroke-width="0.70588" />
<line x1="367.08" y1="52.199" x2="367.08" y2="58.51" stroke-width="0.70588" />
<line x1="457.26" y1="52.199" x2="457.26" y2="58.51" stroke-width="0.70588" />
<line x1="547.45" y1="52.199" x2="547.45" y2="58.51" stroke-width="0.70588" />
<line x1="73.963" y1="52.199" x2="570" y2="52.199" stroke-width="0.70588" />
<polygon points="96.127,44.168 94.98,43.785 94.215,42.638 93.833,40.726 93.833,39.579 94.215,37.666 94.98,36.519 96.127,36.136 96.892,36.136 98.04,36.519 98.805,37.666 99.187,39.579 99.187,40.726 98.805,42.638 98.04,43.785 96.892,44.168 " stroke-width="0.54307" stroke-linejoin="round" />
<polyline points="184.4,42.256 184.4,42.638 184.79,43.403 185.17,43.785 185.93,44.168 187.46,44.168 188.23,43.785 188.61,43.403 188.99,42.638 188.99,41.873 188.61,41.108 187.85,39.961 184.02,36.136 189.38,36.136 " stroke-width="0.54307" stroke-linecap="round" stroke-linejoin="round" />
<polyline points="278.03,44.168 274.21,38.814 279.95,38.814 " stroke-width="0.54307" stroke-linecap="round" stroke-linejoin="round" />
<line x1="278.03" y1="44.168" x2="278.03" y2="36.136" stroke-width="0.54307" stroke-linecap="round" />
<polyline points="369.37,43.021 368.99,43.785 367.84,44.168 367.08,44.168 365.93,43.785 365.16,42.638 364.78,40.726 364.78,38.814 365.16,37.284 365.93,36.519 367.08,36.136 367.46,36.136 368.61,36.519 369.37,37.284 369.75,38.431 369.75,38.814 369.37,39.961 368.61,40.726 367.46,41.108 367.08,41.108 365.93,40.726 365.16,39.961 364.78,38.814 " stroke-width="0.54307" stroke-linecap="round" stroke-linejoin="round" />
<polyline points="456.5,44.168 455.35,43.785 454.97,43.021 454.97,42.256 455.35,41.491 456.12,41.108 457.65,40.726 458.79,40.343 459.56,39.579 459.94,38.814 459.94,37.666 459.56,36.901 459.18,36.519 458.03,36.136 456.5,36.136 455.35,36.519 454.97,36.901 454.59,37.666 454.59,38.814 454.97,39.579 455.73,40.343 456.88,40.726 458.41,41.108 459.18,41.491 459.56,42.256 459.56,43.021 459.18,43.785 458.03,44.168 456.5,44.168 " stroke-width="0.54307" stroke-linecap="round" stroke-linejoin="round" />
<polyline points="542.1,42.638 542.86,43.021 544.01,44.168 544.01,36.136 " stroke-width="0.54307" stroke-linecap="round" stroke-linejoin="round" />
<polygon points="550.89,44.168 549.75,43.785 548.98,42.638 548.6,40.726 548.6,39.579 548.98,37.666 549.75,36.519 550.89,36.136 551.66,36.136 552.81,36.519 553.57,37.666 553.95,39.579 553.95,40.726 553.57,42.638 552.81,43.785 551.66,44.168 " stroke-width="0.54307" stroke-linejoin="round" />
<polyline points="293.87,25.428 293.49,26.193 292.72,26.958 291.96,27.34 290.43,27.34 289.66,26.958 288.9,26.193 288.52,25.428 288.13,24.281 288.13,22.368 288.52,21.221 288.9,20.456 289.66,19.691 290.43,19.309 291.96,19.309 292.72,19.691 293.49,20.456 293.87,21.221 293.87,22.368 " stroke-width="0.54307" stroke-linecap="round" stroke-linejoin="round" />
<line x1="291.96" y1="22.368" x2="293.87" y2="22.368" stroke-width="0.54307" stroke-linecap="round" />
<polyline points="296.17,22.368 300.76,22.368 300.76,23.133 300.37,23.898 299.99,24.281 299.23,24.663 298.08,24.663 297.31,24.281 296.55,23.516 296.17,22.368 296.17,21.603 296.55,20.456 297.31,19.691 298.08,19.309 299.23,19.309 299.99,19.691 300.76,20.456 " stroke-width="0.54307" stroke-linecap="round" stroke-linejoin="round" />
<line x1="303.43" y1="24.663" x2="303.43" y2="19.309" stroke-width="0.54307" stroke-linecap="round" />
<polyline points="303.43,23.133 304.58,24.281 305.34,24.663 306.49,24.663 307.26,24.281 307.64,23.133 307.64,19.309 " stroke-width="0.54307" stroke-linecap="round" stroke-linejoin="round" />
<polyline points="310.32,22.368 314.91,22.368 314.91,23.133 314.52,23.898 314.14,24.281 313.38,24.663 312.23,24.663 311.46,24.281 310.7,23.516 310.32,22.368 310.32,21.603 310.7,20.456 311.46,19.691 312.23,19.309 313.38,19.309 314.14,19.691 314.91,20.456 " stroke-width="0.54307" stroke-linecap="round" stroke-linejoin="round" />
<line x1="317.58" y1="24.663" x2="317.58" y2="19.309" stroke-width="0.54307" stroke-linecap="round" />
<polyline points="317.58,22.368 317.97,23.516 318.73,24.281 319.5,24.663 320.64,24.663 " stroke-width="0.54307" stroke-linecap="round" stroke-linejoin="round" />
<line x1="326.76" y1="24.663" x2="326.76" y2="19.309" stroke-width="0.54307" stroke-linecap="round" />
<polyline points="326.76,23.516 326,24.281 325.23,24.663 324.08,24.663 323.32,24.281 322.56,23.516 322.17,22.368 322.17,21.603 322.56,20.456 323.32,19.691 324.08,19.309 325.23,19.309 326,19.691 326.76,20.456 " stroke-width="0.54307" stroke-linecap="round" stroke-linejoin="round" />
<polyline points="330.2,27.34 330.2,20.839 330.59,19.691 331.35,19.309 332.12,19.309 " stroke-width="0.54307" stroke-linecap="round" stroke-linejoin="round" />
<line x1="329.06" y1="24.663" x2="331.73" y2="24.663" stroke-width="0.54307" stroke-linecap="round" />
<polygon points="334.03,27.34 334.41,26.958 334.79,27.34 334.41,27.723 " stroke-width="0.54307" stroke-linejoin="round" />
<line x1="334.41" y1="24.663" x2="334.41" y2="19.309" stroke-width="0.54307" stroke-linecap="round" />
<polygon points="339,24.663 338.24,24.281 337.47,23.516 337.09,22.368 337.09,21.603 337.47,20.456 338.24,19.691 339,19.309 340.15,19.309 340.91,19.691 341.68,20.456 342.06,21.603 342.06,22.368 341.68,23.516 340.91,24.281 340.15,24.663 " stroke-width="0.54307" stroke-linejoin="round" />
<line x1="344.74" y1="24.663" x2="344.74" y2="19.309" stroke-width="0.54307" stroke-linecap="round" />
<polyline points="344.74,23.133 345.88,24.281 346.65,24.663 347.8,24.663 348.56,24.281 348.94,23.133 348.94,19.309 " stroke-width="0.54307" stroke-linecap="round" stroke-linejoin="round" />
<polyline points="355.83,23.516 355.45,24.281 354.3,24.663 353.15,24.663 352,24.281 351.62,23.516 352,22.751 352.77,22.368 354.68,21.986 355.45,21.603 355.83,20.839 355.83,20.456 355.45,19.691 354.3,19.309 353.15,19.309 352,19.691 351.62,20.456 " stroke-width="0.54307" stroke-linecap="round" stroke-linejoin="round" />
</g>
</svg>
