<?xml version="1.0" encoding="UTF-8" standalone="no"?>
<!DOCTYPE svg PUBLIC "-//W3C//DTD SVG 1.1//EN"
 "http://www.w3.org/Graphics/SVG/1.1/DTD/svg11.dtd">
<!-- Generated by graphviz version 2.26.3 (20100126.1600)
 -->
<!-- Title: G Pages: 1 -->
<svg width="142pt" height="130pt"
 viewBox="0.00 0.00 142.00 130.00" xmlns="http://www.w3.org/2000/svg" xmlns:xlink="http://www.w3.org/1999/xlink">
<g id="graph1" class="graph" transform="scale(1 1) rotate(0) translate(4 126)">
<title>G</title>
<polygon fill="white" stroke="white" points="-4,5 -4,-126 139,-126 139,5 -4,5"/>
<g id="graph2" class="cluster"><title>cluster_inputs</title>
<polygon fill="none" stroke="white" points="8,-78 8,-114 126,-114 126,-78 8,-78"/>
</g>
<g id="graph3" class="cluster"><title>cluster_outputs</title>
<polygon fill="none" stroke="white" points="17,-8 17,-58 115,-58 115,-8 17,-8"/>
</g>
<!-- 1 -->
<g id="node2" class="node"><title>1</title>
<polygon fill="lightgrey" stroke="black" points="78,-106 56,-106 56,-86 78,-86 78,-106"/>
<text text-anchor="middle" x="67" y="-93.9" font-family="Times Roman,serif" font-size="9.00">1</text>
</g>
<!-- 4 -->
<g id="node6" class="node"><title>4</title>
<ellipse fill="lightblue" stroke="lightblue" cx="91" cy="-33" rx="15.7706" ry="16.2635"/>
<text text-anchor="middle" x="91" y="-30.9" font-family="Times Roman,serif" font-size="9.00">4</text>
</g>
<!-- 1&#45;&gt;4 -->
<g id="edge4" class="edge"><title>1&#45;&gt;4</title>
<path fill="none" stroke="black" d="M70.856,-85.878C73.6883,-78.4432 77.6666,-68.0001 81.3405,-58.3563"/>
<polygon fill="black" stroke="black" points="84.7087,-59.3462 84.998,-48.7553 78.1672,-56.8542 84.7087,-59.3462"/>
</g>
<!-- 5 -->
<g id="node7" class="node"><title>5</title>
<ellipse fill="lightblue" stroke="lightblue" cx="41" cy="-33" rx="15.7706" ry="16.2635"/>
<text text-anchor="middle" x="41" y="-30.9" font-family="Times Roman,serif" font-size="9.00">5</text>
</g>
<!-- 1&#45;&gt;5 -->
<g id="edge6" class="edge"><title>1&#45;&gt;5</title>
<path fill="none" stroke="black" d="M62.8227,-85.878C59.679,-78.2606 55.232,-67.4853 51.1718,-57.6472"/>
<polygon fill="black" stroke="black" points="54.3535,-56.1817 47.3032,-48.2732 47.8828,-58.8521 54.3535,-56.1817"/>
</g>
<!-- 2 -->
<g id="node3" class="node"><title>2</title>
<polygon fill="lightgrey" stroke="black" points="38,-106 16,-106 16,-86 38,-86 38,-106"/>
<text text-anchor="middle" x="27" y="-93.9" font-family="Times Roman,serif" font-size="9.00">2</text>
</g>
<!-- 2&#45;&gt;4 -->
<g id="edge12" class="edge"><title>2&#45;&gt;4</title>
<path fill="none" stroke="black" d="M37.63,-85.7149C45.4919,-78.0906 56.4464,-67.4303 66,-58 67.9112,-56.1135 69.8993,-54.1416 71.8822,-52.1687"/>
<polygon fill="black" stroke="black" points="74.7264,-54.2748 79.3303,-44.7325 69.7806,-49.3211 74.7264,-54.2748"/>
</g>
<!-- 2&#45;&gt;5 -->
<g id="edge8" class="edge"><title>2&#45;&gt;5</title>
<path fill="none" stroke="black" d="M29.2493,-85.878C30.8614,-78.6236 33.11,-68.5052 35.2089,-59.0598"/>
<polygon fill="black" stroke="black" points="38.6379,-59.7631 37.3907,-49.242 31.8046,-58.2446 38.6379,-59.7631"/>
</g>
<!-- 3 -->
<g id="node4" class="node"><title>3</title>
<polygon fill="lightgrey" stroke="black" points="118,-106 96,-106 96,-86 118,-86 118,-106"/>
<text text-anchor="middle" x="107" y="-93.9" font-family="Times Roman,serif" font-size="9.00">3</text>
</g>
<!-- 3&#45;&gt;4 -->
<g id="edge10" class="edge"><title>3&#45;&gt;4</title>
<path fill="none" stroke="black" d="M104.429,-85.878C102.587,-78.6236 100.017,-68.5052 97.6184,-59.0598"/>
<polygon fill="black" stroke="black" points="100.979,-58.0727 95.1249,-49.242 94.1943,-59.7959 100.979,-58.0727"/>
</g>
<!-- 3&#45;&gt;5 -->
<g id="edge14" class="edge"><title>3&#45;&gt;5</title>
<path fill="none" stroke="black" d="M95.7562,-85.791C87.457,-78.2045 75.928,-67.5582 66,-58 64.0654,-56.1375 62.0619,-54.1814 60.0696,-52.2182"/>
<polygon fill="black" stroke="black" points="62.1669,-49.3675 52.6101,-44.7936 57.2287,-54.3288 62.1669,-49.3675"/>
</g>
</g>
</svg>
