<?xml version="1.0" encoding="ISO-8859-1" standalone="no"?>
<!DOCTYPE svg PUBLIC "-//W3C//DTD SVG 1.1//EN" "http://www.w3.org/Graphics/SVG/1.1/DTD/svg11.dtd">
<svg version="1.1" baseProfile="full" id="body" width="8in" height="8in" viewBox="0 0 1 1" preserveAspectRatio="none" xmlns="http://www.w3.org/2000/svg" xmlns:xlink="http://www.w3.org/1999/xlink" xmlns:ev="http://www.w3.org/2001/xml-events">
<title>SVG drawing</title>
<desc>This was produced by version 4.4 of GNU libplot, a free library for exporting 2-D vector graphics.</desc>
<rect id="background" x="0" y="0" width="1" height="1" stroke="none" fill="white"/>
<g id="content" transform="translate(0,1) scale(0.00097656,-0.00125) " xml:space="preserve" stroke="black" stroke-linecap="butt" stroke-linejoin="miter" stroke-miterlimit="10.433" stroke-dasharray="none" stroke-dashoffset="0" stroke-opacity="1" fill="none" fill-rule="evenodd" fill-opacity="1" font-style="normal" font-variant="normal" font-weight="normal" font-stretch="normal" font-size-adjust="none" letter-spacing="normal" word-spacing="normal" text-anchor="start">
<polyline points="500.99,746.68 499.21,748.46 496.55,749.35 492.99,749.35 490.33,748.46 488.55,746.68 488.55,744.91 489.44,743.13 490.33,742.24 492.11,741.36 497.44,739.58 499.21,738.69 500.1,737.8 500.99,736.03 500.99,733.36 499.21,731.59 496.55,730.7 492.99,730.7 490.33,731.59 488.55,733.36 " stroke-width="1.2611" stroke-linecap="round" stroke-linejoin="round" />
<line x1="507.2" y1="743.13" x2="507.2" y2="724.48" stroke-width="1.2611" stroke-linecap="round" />
<polyline points="507.2,740.47 508.98,742.24 510.76,743.13 513.42,743.13 515.2,742.24 516.97,740.47 517.86,737.8 517.86,736.03 516.97,733.36 515.2,731.59 513.42,730.7 510.76,730.7 508.98,731.59 507.2,733.36 " stroke-width="1.2611" stroke-linecap="round" stroke-linejoin="round" />
<polyline points="523.19,737.8 533.85,737.8 533.85,739.58 532.96,741.36 532.07,742.24 530.29,743.13 527.63,743.13 525.85,742.24 524.08,740.47 523.19,737.8 523.19,736.03 524.08,733.36 525.85,731.59 527.63,730.7 530.29,730.7 532.07,731.59 533.85,733.36 " stroke-width="1.2611" stroke-linecap="round" stroke-linejoin="round" />
<polyline points="549.83,740.47 548.06,742.24 546.28,743.13 543.62,743.13 541.84,742.24 540.06,740.47 539.17,737.8 539.17,736.03 540.06,733.36 541.84,731.59 543.62,730.7 546.28,730.7 548.06,731.59 549.83,733.36 " stroke-width="1.2611" stroke-linecap="round" stroke-linejoin="round" />
<polygon points="555.16,749.35 556.05,748.46 556.94,749.35 556.05,750.24 " stroke-width="1.2611" stroke-linejoin="round" />
<line x1="556.05" y1="743.13" x2="556.05" y2="730.7" stroke-width="1.2611" stroke-linecap="round" />
<line x1="572.92" y1="743.13" x2="572.92" y2="730.7" stroke-width="1.2611" stroke-linecap="round" />
<polyline points="572.92,740.47 571.15,742.24 569.37,743.13 566.71,743.13 564.93,742.24 563.15,740.47 562.26,737.8 562.26,736.03 563.15,733.36 564.93,731.59 566.71,730.7 569.37,730.7 571.15,731.59 572.92,733.36 " stroke-width="1.2611" stroke-linecap="round" stroke-linejoin="round" />
<polyline points="580.91,749.35 580.91,734.25 581.8,731.59 583.58,730.7 585.36,730.7 " stroke-width="1.2611" stroke-linecap="round" stroke-linejoin="round" />
<line x1="578.25" y1="743.13" x2="584.47" y2="743.13" stroke-width="1.2611" stroke-linecap="round" />
<polygon points="589.8,749.35 590.68,748.46 591.57,749.35 590.68,750.24 " stroke-width="1.2611" stroke-linejoin="round" />
<line x1="590.68" y1="743.13" x2="590.68" y2="730.7" stroke-width="1.2611" stroke-linecap="round" />
<polygon points="601.34,743.13 599.56,742.24 597.79,740.47 596.9,737.8 596.9,736.03 597.79,733.36 599.56,731.59 601.34,730.7 604,730.7 605.78,731.59 607.56,733.36 608.45,736.03 608.45,737.8 607.56,740.47 605.78,742.24 604,743.13 " stroke-width="1.2611" stroke-linejoin="round" />
<line x1="614.66" y1="743.13" x2="614.66" y2="730.7" stroke-width="1.2611" stroke-linecap="round" />
<polyline points="614.66,739.58 617.33,742.24 619.1,743.13 621.77,743.13 623.54,742.24 624.43,739.58 624.43,730.7 " stroke-width="1.2611" stroke-linecap="round" stroke-linejoin="round" />
<polyline points="178.88,687.42 254.49,687.42 330.1,687.42 405.71,687.42 481.32,687.42 556.94,687.42 632.55,687.42 708.16,687.42 783.77,687.42 859.38,687.42 934.99,660.57 " stroke-width="0.97689" />
<polyline points="178.88,150.46 254.49,150.46 330.1,150.46 405.71,150.46 481.32,150.46 556.94,150.46 632.55,150.46 708.16,150.46 783.77,150.46 859.38,150.46 934.99,150.46 934.99,660.57 859.38,687.42 783.77,687.42 708.16,687.42 632.55,687.42 556.94,687.42 481.32,687.42 405.71,687.42 330.1,687.42 254.49,687.42 178.88,687.42 " stroke="#00ecb4" stroke-width="1.2047" fill="#00ecb4" />
<polyline points="178.88,687.42 254.49,687.42 330.1,687.42 405.71,687.42 481.32,687.42 556.94,687.42 632.55,687.42 708.16,687.42 783.77,687.42 859.38,687.42 934.99,687.42 " stroke-width="0.97689" />
<polygon points="178.88,687.42 254.49,687.42 330.1,687.42 405.71,687.42 481.32,687.42 556.94,687.42 632.55,687.42 708.16,687.42 783.77,687.42 859.38,687.42 934.99,660.57 934.99,687.42 859.38,687.42 783.77,687.42 708.16,687.42 632.55,687.42 556.94,687.42 481.32,687.42 405.71,687.42 330.1,687.42 254.49,687.42 " stroke="#014579" stroke-width="1.2047" fill="#014579" />
<polyline points="178.88,687.42 254.49,687.42 330.1,687.42 405.71,687.42 481.32,687.42 556.94,687.42 632.55,687.42 708.16,687.42 783.77,687.42 859.38,687.42 934.99,687.42 " stroke-width="0.97689" />
<polygon points="178.88,687.42 254.49,687.42 330.1,687.42 405.71,687.42 481.32,687.42 556.94,687.42 632.55,687.42 708.16,687.42 783.77,687.42 859.38,687.42 934.99,687.42 934.99,687.42 859.38,687.42 783.77,687.42 708.16,687.42 632.55,687.42 556.94,687.42 481.32,687.42 405.71,687.42 330.1,687.42 254.49,687.42 " stroke="#011f7a" stroke-width="1.2047" fill="#011f7a" />
<polyline points="178.88,687.42 254.49,687.42 330.1,687.42 405.71,687.42 481.32,687.42 556.94,687.42 632.55,687.42 708.16,687.42 783.77,687.42 859.38,687.42 934.99,687.42 " stroke-width="0.97689" />
<polygon points="178.88,687.42 254.49,687.42 330.1,687.42 405.71,687.42 481.32,687.42 556.94,687.42 632.55,687.42 708.16,687.42 783.77,687.42 859.38,687.42 934.99,687.42 934.99,687.42 859.38,687.42 783.77,687.42 708.16,687.42 632.55,687.42 556.94,687.42 481.32,687.42 405.71,687.42 330.1,687.42 254.49,687.42 " stroke="#0096db" stroke-width="1.2047" fill="#0096db" />
<polyline points="178.88,687.42 254.49,687.42 330.1,687.42 405.71,687.42 481.32,687.42 556.94,687.42 632.55,687.42 708.16,687.42 783.77,687.42 859.38,687.42 934.99,687.42 " stroke-width="0.97689" />
<polygon points="178.88,687.42 254.49,687.42 330.1,687.42 405.71,687.42 481.32,687.42 556.94,687.42 632.55,687.42 708.16,687.42 783.77,687.42 859.38,687.42 934.99,687.42 934.99,687.42 859.38,687.42 783.77,687.42 708.16,687.42 632.55,687.42 556.94,687.42 481.32,687.42 405.71,687.42 330.1,687.42 254.49,687.42 " stroke="#006320" stroke-width="1.2047" fill="#006320" />
<polyline points="178.88,687.42 254.49,687.42 330.1,687.42 405.71,687.42 481.32,687.42 556.94,687.42 632.55,687.42 708.16,687.42 783.77,687.42 859.38,687.42 934.99,687.42 " stroke-width="0.97689" />
<polygon points="178.88,687.42 254.49,687.42 330.1,687.42 405.71,687.42 481.32,687.42 556.94,687.42 632.55,687.42 708.16,687.42 783.77,687.42 859.38,687.42 934.99,687.42 934.99,687.42 859.38,687.42 783.77,687.42 708.16,687.42 632.55,687.42 556.94,687.42 481.32,687.42 405.71,687.42 330.1,687.42 254.49,687.42 " stroke="#00c801" stroke-width="1.2047" fill="#00c801" />
<polyline points="178.88,687.42 254.49,687.42 330.1,687.42 405.71,687.42 481.32,687.42 556.94,687.42 632.55,687.42 708.16,687.42 783.77,687.42 859.38,687.42 934.99,687.42 " stroke-width="0.97689" />
<polygon points="178.88,687.42 254.49,687.42 330.1,687.42 405.71,687.42 481.32,687.42 556.94,687.42 632.55,687.42 708.16,687.42 783.77,687.42 859.38,687.42 934.99,687.42 934.99,687.42 859.38,687.42 783.77,687.42 708.16,687.42 632.55,687.42 556.94,687.42 481.32,687.42 405.71,687.42 330.1,687.42 254.49,687.42 " stroke="#0044b0" stroke-width="1.2047" fill="#0044b0" />
<polyline points="178.88,687.42 254.49,687.42 330.1,687.42 405.71,687.42 481.32,687.42 556.94,687.42 632.55,687.42 708.16,687.42 783.77,687.42 859.38,687.42 934.99,687.42 " stroke-width="0.97689" />
<polygon points="178.88,687.42 254.49,687.42 330.1,687.42 405.71,687.42 481.32,687.42 556.94,687.42 632.55,687.42 708.16,687.42 783.77,687.42 859.38,687.42 934.99,687.42 934.99,687.42 859.38,687.42 783.77,687.42 708.16,687.42 632.55,687.42 556.94,687.42 481.32,687.42 405.71,687.42 330.1,687.42 254.49,687.42 " stroke="#000f20" stroke-width="1.2047" fill="#000f20" />
<polyline points="178.88,687.42 254.49,687.42 330.1,687.42 405.71,687.42 481.32,687.42 556.94,687.42 632.55,687.42 708.16,687.42 783.77,687.42 859.38,687.42 934.99,687.42 " stroke-width="0.97689" />
<polygon points="178.88,687.42 254.49,687.42 330.1,687.42 405.71,687.42 481.32,687.42 556.94,687.42 632.55,687.42 708.16,687.42 783.77,687.42 859.38,687.42 934.99,687.42 934.99,687.42 859.38,687.42 783.77,687.42 708.16,687.42 632.55,687.42 556.94,687.42 481.32,687.42 405.71,687.42 330.1,687.42 254.49,687.42 " stroke="#00dbda" stroke-width="1.2047" fill="#00dbda" />
<polyline points="178.88,687.42 254.49,687.42 330.1,687.42 405.71,687.42 481.32,687.42 556.94,687.42 632.55,687.42 708.16,687.42 783.77,687.42 859.38,687.42 934.99,687.42 " stroke-width="0.97689" />
<polygon points="178.88,687.42 254.49,687.42 330.1,687.42 405.71,687.42 481.32,687.42 556.94,687.42 632.55,687.42 708.16,687.42 783.77,687.42 859.38,687.42 934.99,687.42 934.99,687.42 859.38,687.42 783.77,687.42 708.16,687.42 632.55,687.42 556.94,687.42 481.32,687.42 405.71,687.42 330.1,687.42 254.49,687.42 " stroke="#00f05d" stroke-width="1.2047" fill="#00f05d" />
<polyline points="178.88,687.42 254.49,687.42 330.1,687.42 405.71,687.42 481.32,687.42 556.94,687.42 632.55,687.42 708.16,687.42 783.77,687.42 859.38,687.42 934.99,687.42 " stroke-width="0.97689" />
<polygon points="178.88,687.42 254.49,687.42 330.1,687.42 405.71,687.42 481.32,687.42 556.94,687.42 632.55,687.42 708.16,687.42 783.77,687.42 859.38,687.42 934.99,687.42 934.99,687.42 859.38,687.42 783.77,687.42 708.16,687.42 632.55,687.42 556.94,687.42 481.32,687.42 405.71,687.42 330.1,687.42 254.49,687.42 " stroke="#005761" stroke-width="1.2047" fill="#005761" />
<line x1="972.8" y1="123.61" x2="965.47" y2="123.61" stroke-width="1.2047" />
<line x1="972.8" y1="150.46" x2="965.47" y2="150.46" stroke-width="1.2047" />
<line x1="972.8" y1="177.31" x2="965.47" y2="177.31" stroke-width="1.2047" />
<line x1="972.8" y1="204.16" x2="965.47" y2="204.16" stroke-width="1.2047" />
<line x1="972.8" y1="231.01" x2="965.47" y2="231.01" stroke-width="1.2047" />
<line x1="972.8" y1="257.85" x2="965.47" y2="257.85" stroke-width="1.2047" />
<line x1="972.8" y1="284.7" x2="965.47" y2="284.7" stroke-width="1.2047" />
<line x1="972.8" y1="311.55" x2="965.47" y2="311.55" stroke-width="1.2047" />
<line x1="972.8" y1="338.4" x2="965.47" y2="338.4" stroke-width="1.2047" />
<line x1="972.8" y1="365.25" x2="965.47" y2="365.25" stroke-width="1.2047" />
<line x1="972.8" y1="392.09" x2="965.47" y2="392.09" stroke-width="1.2047" />
<line x1="972.8" y1="418.94" x2="965.47" y2="418.94" stroke-width="1.2047" />
<line x1="972.8" y1="445.79" x2="965.47" y2="445.79" stroke-width="1.2047" />
<line x1="972.8" y1="472.64" x2="965.47" y2="472.64" stroke-width="1.2047" />
<line x1="972.8" y1="499.48" x2="965.47" y2="499.48" stroke-width="1.2047" />
<line x1="972.8" y1="526.33" x2="965.47" y2="526.33" stroke-width="1.2047" />
<line x1="972.8" y1="553.18" x2="965.47" y2="553.18" stroke-width="1.2047" />
<line x1="972.8" y1="580.03" x2="965.47" y2="580.03" stroke-width="1.2047" />
<line x1="972.8" y1="606.88" x2="965.47" y2="606.88" stroke-width="1.2047" />
<line x1="972.8" y1="633.72" x2="965.47" y2="633.72" stroke-width="1.2047" />
<line x1="972.8" y1="660.57" x2="965.47" y2="660.57" stroke-width="1.2047" />
<line x1="972.8" y1="687.42" x2="965.47" y2="687.42" stroke-width="1.2047" />
<line x1="972.8" y1="714.27" x2="965.47" y2="714.27" stroke-width="1.2047" />
<line x1="972.8" y1="150.46" x2="958.15" y2="150.46" stroke-width="1.2047" />
<line x1="972.8" y1="284.7" x2="958.15" y2="284.7" stroke-width="1.2047" />
<line x1="972.8" y1="418.94" x2="958.15" y2="418.94" stroke-width="1.2047" />
<line x1="972.8" y1="553.18" x2="958.15" y2="553.18" stroke-width="1.2047" />
<line x1="972.8" y1="687.42" x2="958.15" y2="687.42" stroke-width="1.2047" />
<line x1="972.8" y1="123.61" x2="972.8" y2="714.27" stroke-width="1.2047" />
<line x1="141.07" y1="714.27" x2="141.07" y2="706.94" stroke-width="1.2047" />
<line x1="178.88" y1="714.27" x2="178.88" y2="706.94" stroke-width="1.2047" />
<line x1="216.68" y1="714.27" x2="216.68" y2="706.94" stroke-width="1.2047" />
<line x1="254.49" y1="714.27" x2="254.49" y2="706.94" stroke-width="1.2047" />
<line x1="292.3" y1="714.27" x2="292.3" y2="706.94" stroke-width="1.2047" />
<line x1="330.1" y1="714.27" x2="330.1" y2="706.94" stroke-width="1.2047" />
<line x1="367.91" y1="714.27" x2="367.91" y2="706.94" stroke-width="1.2047" />
<line x1="405.71" y1="714.27" x2="405.71" y2="706.94" stroke-width="1.2047" />
<line x1="443.52" y1="714.27" x2="443.52" y2="706.94" stroke-width="1.2047" />
<line x1="481.32" y1="714.27" x2="481.32" y2="706.94" stroke-width="1.2047" />
<line x1="519.13" y1="714.27" x2="519.13" y2="706.94" stroke-width="1.2047" />
<line x1="556.94" y1="714.27" x2="556.94" y2="706.94" stroke-width="1.2047" />
<line x1="594.74" y1="714.27" x2="594.74" y2="706.94" stroke-width="1.2047" />
<line x1="632.55" y1="714.27" x2="632.55" y2="706.94" stroke-width="1.2047" />
<line x1="670.35" y1="714.27" x2="670.35" y2="706.94" stroke-width="1.2047" />
<line x1="708.16" y1="714.27" x2="708.16" y2="706.94" stroke-width="1.2047" />
<line x1="745.97" y1="714.27" x2="745.97" y2="706.94" stroke-width="1.2047" />
<line x1="783.77" y1="714.27" x2="783.77" y2="706.94" stroke-width="1.2047" />
<line x1="821.58" y1="714.27" x2="821.58" y2="706.94" stroke-width="1.2047" />
<line x1="859.38" y1="714.27" x2="859.38" y2="706.94" stroke-width="1.2047" />
<line x1="897.19" y1="714.27" x2="897.19" y2="706.94" stroke-width="1.2047" />
<line x1="934.99" y1="714.27" x2="934.99" y2="706.94" stroke-width="1.2047" />
<line x1="972.8" y1="714.27" x2="972.8" y2="706.94" stroke-width="1.2047" />
<line x1="178.88" y1="714.27" x2="178.88" y2="699.62" stroke-width="1.2047" />
<line x1="330.1" y1="714.27" x2="330.1" y2="699.62" stroke-width="1.2047" />
<line x1="481.32" y1="714.27" x2="481.32" y2="699.62" stroke-width="1.2047" />
<line x1="632.55" y1="714.27" x2="632.55" y2="699.62" stroke-width="1.2047" />
<line x1="783.77" y1="714.27" x2="783.77" y2="699.62" stroke-width="1.2047" />
<line x1="934.99" y1="714.27" x2="934.99" y2="699.62" stroke-width="1.2047" />
<line x1="141.07" y1="714.27" x2="972.8" y2="714.27" stroke-width="1.2047" />
<line x1="141.07" y1="123.61" x2="148.4" y2="123.61" stroke-width="1.2047" />
<line x1="141.07" y1="150.46" x2="148.4" y2="150.46" stroke-width="1.2047" />
<line x1="141.07" y1="177.31" x2="148.4" y2="177.31" stroke-width="1.2047" />
<line x1="141.07" y1="204.16" x2="148.4" y2="204.16" stroke-width="1.2047" />
<line x1="141.07" y1="231.01" x2="148.4" y2="231.01" stroke-width="1.2047" />
<line x1="141.07" y1="257.85" x2="148.4" y2="257.85" stroke-width="1.2047" />
<line x1="141.07" y1="284.7" x2="148.4" y2="284.7" stroke-width="1.2047" />
<line x1="141.07" y1="311.55" x2="148.4" y2="311.55" stroke-width="1.2047" />
<line x1="141.07" y1="338.4" x2="148.4" y2="338.4" stroke-width="1.2047" />
<line x1="141.07" y1="365.25" x2="148.4" y2="365.25" stroke-width="1.2047" />
<line x1="141.07" y1="392.09" x2="148.4" y2="392.09" stroke-width="1.2047" />
<line x1="141.07" y1="418.94" x2="148.4" y2="418.94" stroke-width="1.2047" />
<line x1="141.07" y1="445.79" x2="148.4" y2="445.79" stroke-width="1.2047" />
<line x1="141.07" y1="472.64" x2="148.4" y2="472.64" stroke-width="1.2047" />
<line x1="141.07" y1="499.48" x2="148.4" y2="499.48" stroke-width="1.2047" />
<line x1="141.07" y1="526.33" x2="148.4" y2="526.33" stroke-width="1.2047" />
<line x1="141.07" y1="553.18" x2="148.4" y2="553.18" stroke-width="1.2047" />
<line x1="141.07" y1="580.03" x2="148.4" y2="580.03" stroke-width="1.2047" />
<line x1="141.07" y1="606.88" x2="148.4" y2="606.88" stroke-width="1.2047" />
<line x1="141.07" y1="633.72" x2="148.4" y2="633.72" stroke-width="1.2047" />
<line x1="141.07" y1="660.57" x2="148.4" y2="660.57" stroke-width="1.2047" />
<line x1="141.07" y1="687.42" x2="148.4" y2="687.42" stroke-width="1.2047" />
<line x1="141.07" y1="714.27" x2="148.4" y2="714.27" stroke-width="1.2047" />
<line x1="141.07" y1="150.46" x2="155.73" y2="150.46" stroke-width="1.2047" />
<line x1="141.07" y1="284.7" x2="155.73" y2="284.7" stroke-width="1.2047" />
<line x1="141.07" y1="418.94" x2="155.73" y2="418.94" stroke-width="1.2047" />
<line x1="141.07" y1="553.18" x2="155.73" y2="553.18" stroke-width="1.2047" />
<line x1="141.07" y1="687.42" x2="155.73" y2="687.42" stroke-width="1.2047" />
<line x1="141.07" y1="123.61" x2="141.07" y2="714.27" stroke-width="1.2047" />
<polygon points="116.65,161.12 113.99,160.23 112.21,157.57 111.32,153.13 111.32,150.46 112.21,146.02 113.99,143.36 116.65,142.47 118.43,142.47 121.09,143.36 122.87,146.02 123.76,150.46 123.76,153.13 122.87,157.57 121.09,160.23 118.43,161.12 " stroke-width="1.2611" stroke-linejoin="round" />
<polyline points="121.98,295.36 113.1,295.36 112.21,287.37 113.1,288.25 115.76,289.14 118.43,289.14 121.09,288.25 122.87,286.48 123.76,283.81 123.76,282.04 122.87,279.37 121.09,277.6 118.43,276.71 115.76,276.71 113.1,277.6 112.21,278.48 111.32,280.26 " stroke-width="1.2611" stroke-linecap="round" stroke-linejoin="round" />
<polyline points="96.225,426.05 98.001,426.93 100.67,429.6 100.67,410.95 " stroke-width="1.2611" stroke-linecap="round" stroke-linejoin="round" />
<polygon points="116.65,429.6 113.99,428.71 112.21,426.05 111.32,421.61 111.32,418.94 112.21,414.5 113.99,411.84 116.65,410.95 118.43,410.95 121.09,411.84 122.87,414.5 123.76,418.94 123.76,421.61 122.87,426.05 121.09,428.71 118.43,429.6 " stroke-width="1.2611" stroke-linejoin="round" />
<polyline points="96.225,560.29 98.001,561.17 100.67,563.84 100.67,545.19 " stroke-width="1.2611" stroke-linecap="round" stroke-linejoin="round" />
<polyline points="121.98,563.84 113.1,563.84 112.21,555.85 113.1,556.73 115.76,557.62 118.43,557.62 121.09,556.73 122.87,554.96 123.76,552.29 123.76,550.52 122.87,547.85 121.09,546.08 118.43,545.19 115.76,545.19 113.1,546.08 112.21,546.96 111.32,548.74 " stroke-width="1.2611" stroke-linecap="round" stroke-linejoin="round" />
<polyline points="94.449,693.64 94.449,694.53 95.337,696.3 96.225,697.19 98.001,698.08 101.55,698.08 103.33,697.19 104.22,696.3 105.11,694.53 105.11,692.75 104.22,690.97 102.44,688.31 93.561,679.43 105.99,679.43 " stroke-width="1.2611" stroke-linecap="round" stroke-linejoin="round" />
<polygon points="116.65,698.08 113.99,697.19 112.21,694.53 111.32,690.09 111.32,687.42 112.21,682.98 113.99,680.32 116.65,679.43 118.43,679.43 121.09,680.32 122.87,682.98 123.76,687.42 123.76,690.09 122.87,694.53 121.09,697.19 118.43,698.08 " stroke-width="1.2611" stroke-linejoin="round" />
<polyline points="58.482,317.26 56.706,315.48 55.818,312.82 55.818,309.26 56.706,306.6 58.482,304.82 60.258,304.82 62.034,305.71 62.922,306.6 63.81,308.38 65.586,313.7 66.474,315.48 67.363,316.37 69.139,317.26 71.803,317.26 73.579,315.48 74.467,312.82 74.467,309.26 73.579,306.6 71.803,304.82 " stroke-width="1.2611" stroke-linecap="round" stroke-linejoin="round" />
<polygon points="55.818,322.58 56.706,323.47 55.818,324.36 54.929,323.47 " stroke-width="1.2611" stroke-linejoin="round" />
<line x1="62.034" y1="323.47" x2="74.467" y2="323.47" stroke-width="1.2611" stroke-linecap="round" />
<line x1="62.034" y1="339.46" x2="74.467" y2="329.69" stroke-width="1.2611" stroke-linecap="round" />
<line x1="62.034" y1="329.69" x2="62.034" y2="339.46" stroke-width="1.2611" stroke-linecap="round" />
<line x1="74.467" y1="329.69" x2="74.467" y2="339.46" stroke-width="1.2611" stroke-linecap="round" />
<polyline points="67.363,344.79 67.363,355.44 65.586,355.44 63.81,354.56 62.922,353.67 62.034,351.89 62.034,349.23 62.922,347.45 64.698,345.67 67.363,344.79 69.139,344.79 71.803,345.67 73.579,347.45 74.467,349.23 74.467,351.89 73.579,353.67 71.803,355.44 " stroke-width="1.2611" stroke-linecap="round" stroke-linejoin="round" />
<line x1="62.034" y1="375.87" x2="80.684" y2="375.87" stroke-width="1.2611" stroke-linecap="round" />
<polyline points="64.698,375.87 62.922,377.65 62.034,379.42 62.034,382.09 62.922,383.86 64.698,385.64 67.363,386.53 69.139,386.53 71.803,385.64 73.579,383.86 74.467,382.09 74.467,379.42 73.579,377.65 71.803,375.87 " stroke-width="1.2611" stroke-linecap="round" stroke-linejoin="round" />
<polyline points="67.363,391.85 67.363,402.51 65.586,402.51 63.81,401.62 62.922,400.74 62.034,398.96 62.034,396.3 62.922,394.52 64.698,392.74 67.363,391.85 69.139,391.85 71.803,392.74 73.579,394.52 74.467,396.3 74.467,398.96 73.579,400.74 71.803,402.51 " stroke-width="1.2611" stroke-linecap="round" stroke-linejoin="round" />
<line x1="62.034" y1="408.73" x2="74.467" y2="408.73" stroke-width="1.2611" stroke-linecap="round" />
<polyline points="67.363,408.73 64.698,409.62 62.922,411.39 62.034,413.17 62.034,415.83 " stroke-width="1.2611" stroke-linecap="round" stroke-linejoin="round" />
<polyline points="58.482,446.03 56.706,444.25 55.818,441.59 55.818,438.03 56.706,435.37 58.482,433.59 60.258,433.59 62.034,434.48 62.922,435.37 63.81,437.15 65.586,442.48 66.474,444.25 67.363,445.14 69.139,446.03 71.803,446.03 73.579,444.25 74.467,441.59 74.467,438.03 73.579,435.37 71.803,433.59 " stroke-width="1.2611" stroke-linecap="round" stroke-linejoin="round" />
<line x1="62.034" y1="452.24" x2="80.684" y2="452.24" stroke-width="1.2611" stroke-linecap="round" />
<polyline points="64.698,452.24 62.922,454.02 62.034,455.8 62.034,458.46 62.922,460.24 64.698,462.01 67.363,462.9 69.139,462.9 71.803,462.01 73.579,460.24 74.467,458.46 74.467,455.8 73.579,454.02 71.803,452.24 " stroke-width="1.2611" stroke-linecap="round" stroke-linejoin="round" />
<polyline points="67.363,468.23 67.363,478.89 65.586,478.89 63.81,478 62.922,477.11 62.034,475.33 62.034,472.67 62.922,470.89 64.698,469.12 67.363,468.23 69.139,468.23 71.803,469.12 73.579,470.89 74.467,472.67 74.467,475.33 73.579,477.11 71.803,478.89 " stroke-width="1.2611" stroke-linecap="round" stroke-linejoin="round" />
<polyline points="64.698,494.87 62.922,493.1 62.034,491.32 62.034,488.66 62.922,486.88 64.698,485.1 67.363,484.21 69.139,484.21 71.803,485.1 73.579,486.88 74.467,488.66 74.467,491.32 73.579,493.1 71.803,494.87 " stroke-width="1.2611" stroke-linecap="round" stroke-linejoin="round" />
<polygon points="55.818,500.2 56.706,501.09 55.818,501.98 54.929,501.09 " stroke-width="1.2611" stroke-linejoin="round" />
<line x1="62.034" y1="501.09" x2="74.467" y2="501.09" stroke-width="1.2611" stroke-linecap="round" />
<polyline points="67.363,507.3 67.363,517.96 65.586,517.96 63.81,517.07 62.922,516.19 62.034,514.41 62.034,511.75 62.922,509.97 64.698,508.19 67.363,507.3 69.139,507.3 71.803,508.19 73.579,509.97 74.467,511.75 74.467,514.41 73.579,516.19 71.803,517.96 " stroke-width="1.2611" stroke-linecap="round" stroke-linejoin="round" />
<polyline points="64.698,533.06 62.922,532.17 62.034,529.51 62.034,526.84 62.922,524.18 64.698,523.29 66.474,524.18 67.363,525.95 68.251,530.39 69.139,532.17 70.915,533.06 71.803,533.06 73.579,532.17 74.467,529.51 74.467,526.84 73.579,524.18 71.803,523.29 " stroke-width="1.2611" stroke-linecap="round" stroke-linejoin="round" />
<line x1="141.07" y1="123.61" x2="141.07" y2="130.94" stroke-width="1.2047" />
<line x1="178.88" y1="123.61" x2="178.88" y2="130.94" stroke-width="1.2047" />
<line x1="216.68" y1="123.61" x2="216.68" y2="130.94" stroke-width="1.2047" />
<line x1="254.49" y1="123.61" x2="254.49" y2="130.94" stroke-width="1.2047" />
<line x1="292.3" y1="123.61" x2="292.3" y2="130.94" stroke-width="1.2047" />
<line x1="330.1" y1="123.61" x2="330.1" y2="130.94" stroke-width="1.2047" />
<line x1="367.91" y1="123.61" x2="367.91" y2="130.94" stroke-width="1.2047" />
<line x1="405.71" y1="123.61" x2="405.71" y2="130.94" stroke-width="1.2047" />
<line x1="443.52" y1="123.61" x2="443.52" y2="130.94" stroke-width="1.2047" />
<line x1="481.32" y1="123.61" x2="481.32" y2="130.94" stroke-width="1.2047" />
<line x1="519.13" y1="123.61" x2="519.13" y2="130.94" stroke-width="1.2047" />
<line x1="556.94" y1="123.61" x2="556.94" y2="130.94" stroke-width="1.2047" />
<line x1="594.74" y1="123.61" x2="594.74" y2="130.94" stroke-width="1.2047" />
<line x1="632.55" y1="123.61" x2="632.55" y2="130.94" stroke-width="1.2047" />
<line x1="670.35" y1="123.61" x2="670.35" y2="130.94" stroke-width="1.2047" />
<line x1="708.16" y1="123.61" x2="708.16" y2="130.94" stroke-width="1.2047" />
<line x1="745.97" y1="123.61" x2="745.97" y2="130.94" stroke-width="1.2047" />
<line x1="783.77" y1="123.61" x2="783.77" y2="130.94" stroke-width="1.2047" />
<line x1="821.58" y1="123.61" x2="821.58" y2="130.94" stroke-width="1.2047" />
<line x1="859.38" y1="123.61" x2="859.38" y2="130.94" stroke-width="1.2047" />
<line x1="897.19" y1="123.61" x2="897.19" y2="130.94" stroke-width="1.2047" />
<line x1="934.99" y1="123.61" x2="934.99" y2="130.94" stroke-width="1.2047" />
<line x1="972.8" y1="123.61" x2="972.8" y2="130.94" stroke-width="1.2047" />
<line x1="178.88" y1="123.61" x2="178.88" y2="138.27" stroke-width="1.2047" />
<line x1="330.1" y1="123.61" x2="330.1" y2="138.27" stroke-width="1.2047" />
<line x1="481.32" y1="123.61" x2="481.32" y2="138.27" stroke-width="1.2047" />
<line x1="632.55" y1="123.61" x2="632.55" y2="138.27" stroke-width="1.2047" />
<line x1="783.77" y1="123.61" x2="783.77" y2="138.27" stroke-width="1.2047" />
<line x1="934.99" y1="123.61" x2="934.99" y2="138.27" stroke-width="1.2047" />
<line x1="141.07" y1="123.61" x2="972.8" y2="123.61" stroke-width="1.2047" />
<polygon points="177.99,104.96 175.33,104.08 173.55,101.41 172.66,96.971 172.66,94.307 173.55,89.866 175.33,87.202 177.99,86.314 179.77,86.314 182.43,87.202 184.21,89.866 185.1,94.307 185.1,96.971 184.21,101.41 182.43,104.08 179.77,104.96 " stroke-width="1.2611" stroke-linejoin="round" />
<polyline points="324.77,100.52 324.77,101.41 325.66,103.19 326.55,104.08 328.33,104.96 331.88,104.96 333.65,104.08 334.54,103.19 335.43,101.41 335.43,99.635 334.54,97.859 332.77,95.195 323.89,86.314 336.32,86.314 " stroke-width="1.2611" stroke-linecap="round" stroke-linejoin="round" />
<polyline points="483.99,104.96 475.11,92.53 488.43,92.53 " stroke-width="1.2611" stroke-linecap="round" stroke-linejoin="round" />
<line x1="483.99" y1="104.96" x2="483.99" y2="86.314" stroke-width="1.2611" stroke-linecap="round" />
<polyline points="637.88,102.3 636.99,104.08 634.32,104.96 632.55,104.96 629.88,104.08 628.11,101.41 627.22,96.971 627.22,92.53 628.11,88.978 629.88,87.202 632.55,86.314 633.44,86.314 636.1,87.202 637.88,88.978 638.76,91.642 638.76,92.53 637.88,95.195 636.1,96.971 633.44,97.859 632.55,97.859 629.88,96.971 628.11,95.195 627.22,92.53 " stroke-width="1.2611" stroke-linecap="round" stroke-linejoin="round" />
<polygon points="781.99,104.96 779.33,104.08 778.44,102.3 778.44,100.52 779.33,98.747 781.11,97.859 784.66,96.971 787.32,96.083 789.1,94.307 789.99,92.53 789.99,89.866 789.1,88.09 788.21,87.202 785.55,86.314 781.99,86.314 779.33,87.202 778.44,88.09 777.55,89.866 777.55,92.53 778.44,94.307 780.22,96.083 782.88,96.971 786.44,97.859 788.21,98.747 789.1,100.52 789.1,102.3 788.21,104.08 785.55,104.96 " stroke-width="1.2611" stroke-linejoin="round" />
<polyline points="922.56,101.41 924.34,102.3 927,104.96 927,86.314 " stroke-width="1.2611" stroke-linecap="round" stroke-linejoin="round" />
<polygon points="942.99,104.96 940.32,104.08 938.55,101.41 937.66,96.971 937.66,94.307 938.55,89.866 940.32,87.202 942.99,86.314 944.76,86.314 947.43,87.202 949.2,89.866 950.09,94.307 950.09,96.971 949.2,101.41 947.43,104.08 944.76,104.96 " stroke-width="1.2611" stroke-linejoin="round" />
<polyline points="491.66,61.448 490.77,63.224 489,65 487.22,65.888 483.67,65.888 481.89,65 480.12,63.224 479.23,61.448 478.34,58.784 478.34,54.343 479.23,51.679 480.12,49.903 481.89,48.127 483.67,47.239 487.22,47.239 489,48.127 490.77,49.903 491.66,51.679 491.66,54.343 " stroke-width="1.2611" stroke-linecap="round" stroke-linejoin="round" />
<line x1="487.22" y1="54.343" x2="491.66" y2="54.343" stroke-width="1.2611" stroke-linecap="round" />
<polyline points="496.99,54.343 507.65,54.343 507.65,56.119 506.76,57.895 505.87,58.784 504.1,59.672 501.43,59.672 499.66,58.784 497.88,57.007 496.99,54.343 496.99,52.567 497.88,49.903 499.66,48.127 501.43,47.239 504.1,47.239 505.87,48.127 507.65,49.903 " stroke-width="1.2611" stroke-linecap="round" stroke-linejoin="round" />
<line x1="513.86" y1="59.672" x2="513.86" y2="47.239" stroke-width="1.2611" stroke-linecap="round" />
<polyline points="513.86,56.119 516.53,58.784 518.31,59.672 520.97,59.672 522.75,58.784 523.63,56.119 523.63,47.239 " stroke-width="1.2611" stroke-linecap="round" stroke-linejoin="round" />
<polyline points="529.85,54.343 540.51,54.343 540.51,56.119 539.62,57.895 538.73,58.784 536.95,59.672 534.29,59.672 532.51,58.784 530.74,57.007 529.85,54.343 529.85,52.567 530.74,49.903 532.51,48.127 534.29,47.239 536.95,47.239 538.73,48.127 540.51,49.903 " stroke-width="1.2611" stroke-linecap="round" stroke-linejoin="round" />
<line x1="546.72" y1="59.672" x2="546.72" y2="47.239" stroke-width="1.2611" stroke-linecap="round" />
<polyline points="546.72,54.343 547.61,57.007 549.39,58.784 551.16,59.672 553.83,59.672 " stroke-width="1.2611" stroke-linecap="round" stroke-linejoin="round" />
<line x1="568.04" y1="59.672" x2="568.04" y2="47.239" stroke-width="1.2611" stroke-linecap="round" />
<polyline points="568.04,57.007 566.26,58.784 564.49,59.672 561.82,59.672 560.04,58.784 558.27,57.007 557.38,54.343 557.38,52.567 558.27,49.903 560.04,48.127 561.82,47.239 564.49,47.239 566.26,48.127 568.04,49.903 " stroke-width="1.2611" stroke-linecap="round" stroke-linejoin="round" />
<polyline points="576.03,65.888 576.03,50.791 576.92,48.127 578.69,47.239 580.47,47.239 " stroke-width="1.2611" stroke-linecap="round" stroke-linejoin="round" />
<line x1="573.37" y1="59.672" x2="579.58" y2="59.672" stroke-width="1.2611" stroke-linecap="round" />
<polygon points="584.91,65.888 585.8,65 586.69,65.888 585.8,66.776 " stroke-width="1.2611" stroke-linejoin="round" />
<line x1="585.8" y1="59.672" x2="585.8" y2="47.239" stroke-width="1.2611" stroke-linecap="round" />
<polygon points="596.46,59.672 594.68,58.784 592.9,57.007 592.02,54.343 592.02,52.567 592.9,49.903 594.68,48.127 596.46,47.239 599.12,47.239 600.9,48.127 602.67,49.903 603.56,52.567 603.56,54.343 602.67,57.007 600.9,58.784 599.12,59.672 " stroke-width="1.2611" stroke-linejoin="round" />
<line x1="609.78" y1="59.672" x2="609.78" y2="47.239" stroke-width="1.2611" stroke-linecap="round" />
<polyline points="609.78,56.119 612.44,58.784 614.22,59.672 616.88,59.672 618.66,58.784 619.55,56.119 619.55,47.239 " stroke-width="1.2611" stroke-linecap="round" stroke-linejoin="round" />
<polyline points="635.53,57.007 634.64,58.784 631.98,59.672 629.31,59.672 626.65,58.784 625.76,57.007 626.65,55.231 628.43,54.343 632.87,53.455 634.64,52.567 635.53,50.791 635.53,49.903 634.64,48.127 631.98,47.239 629.31,47.239 626.65,48.127 625.76,49.903 " stroke-width="1.2611" stroke-linecap="round" stroke-linejoin="round" />
</g>
</svg>
